<svg width="499" height="264" viewBox="0 0 499 264" fill="none" xmlns="http://www.w3.org/2000/svg">
<g clip-path="url(#clip0_247_37)">
<path d="M463.488 88.48C459.584 88.48 456.56 87.552 454.416 85.696C452.272 83.84 451.2 80.832 451.2 76.672C451.2 72.48 452.272 69.472 454.416 67.648C456.56 65.792 459.584 64.864 463.488 64.864C467.488 64.864 470.512 65.792 472.56 67.648C474.64 69.472 475.68 72.48 475.68 76.672C475.68 80.832 474.64 83.84 472.56 85.696C470.512 87.552 467.488 88.48 463.488 88.48ZM463.488 82.24C464.8 82.24 465.712 81.76 466.224 80.8C466.736 79.808 466.992 78.432 466.992 76.672C466.992 74.88 466.736 73.504 466.224 72.544C465.712 71.584 464.8 71.104 463.488 71.104C462.144 71.104 461.2 71.584 460.656 72.544C460.144 73.504 459.888 74.88 459.888 76.672C459.888 78.432 460.144 79.808 460.656 80.8C461.2 81.76 462.144 82.24 463.488 82.24ZM480.363 88V72.448L477.819 67.648L480.363 65.344C480.203 64.8 480.075 64.08 479.979 63.184C479.915 62.256 479.883 61.504 479.883 60.928C479.883 59.104 480.299 57.504 481.131 56.128C481.995 54.752 483.179 53.68 484.683 52.912C486.187 52.112 487.883 51.712 489.771 51.712C490.667 51.712 491.611 51.76 492.603 51.856C493.627 51.92 494.507 52.048 495.243 52.24L500.379 55.168L496.683 61.84L491.163 58.48C490.075 58.48 489.275 58.88 488.763 59.68C488.251 60.448 487.995 61.312 487.995 62.272C487.995 62.976 488.107 63.6 488.331 64.144C488.555 64.688 488.779 65.088 489.003 65.344H496.683V71.104H489.003V80.224L489.483 85.072L489.003 88H480.363Z" fill="#C3D6C9"/>
<rect y="40" width="60" height="60" rx="10" fill="#C3D6C9"/>
<rect y="115" width="60" height="60" rx="10" fill="#C3D6C9"/>
<path d="M15.016 163L8.44 146.584L7.48 140.344H16.6L19.72 155.32H20.68L24.328 140.344H33.88L37.48 155.32H38.44L41.608 140.344H50.68L49.72 146.584L43.096 163H33.016L29.56 147.544H28.6L25.096 163H15.016Z" fill="#2A302C"/>
<rect x="75" y="40" width="60" height="60" rx="10" fill="#C3D6C9"/>
<path d="M100.12 88.48C98.744 88.48 97.464 88.288 96.28 87.904C95.128 87.488 94.2 86.784 93.496 85.792C92.792 84.8 92.44 83.424 92.44 81.664C92.44 80.064 92.84 78.736 93.64 77.68C94.44 76.624 95.528 75.84 96.904 75.328C98.28 74.816 99.832 74.56 101.56 74.56C103.224 74.56 104.472 74.752 105.304 75.136C106.136 75.488 106.856 75.856 107.464 76.24L107.8 75.952C107.8 74.992 107.72 74.192 107.56 73.552C107.4 72.912 107.032 72.432 106.456 72.112C105.88 71.76 104.984 71.584 103.768 71.584C102.584 71.584 101.32 71.696 99.976 71.92C98.664 72.112 97.448 72.368 96.328 72.688C95.24 72.976 94.424 73.264 93.88 73.552V66.352C94.872 66 96.28 65.68 98.104 65.392C99.96 65.072 102.232 64.912 104.92 64.912C107.8 64.912 110.072 65.28 111.736 66.016C113.432 66.72 114.648 67.76 115.384 69.136C116.12 70.48 116.488 72.096 116.488 73.984V80.368L117.448 85.216L116.488 88.048H108.28V85.696L107.8 85.456C107.544 85.712 107.096 86.08 106.456 86.56C105.816 87.04 104.968 87.488 103.912 87.904C102.856 88.288 101.592 88.48 100.12 88.48ZM104.2 82.192C105.064 82.192 105.8 82.112 106.408 81.952C107.048 81.792 107.512 81.648 107.8 81.52V80.608C107.8 80.192 107.496 79.792 106.888 79.408C106.312 79.024 105.4 78.832 104.152 78.832C102.424 78.832 101.56 79.44 101.56 80.656C101.56 81.168 101.752 81.552 102.136 81.808C102.52 82.064 103.208 82.192 104.2 82.192Z" fill="#2A302C"/>
<rect x="150" y="40" width="60" height="60" rx="10" fill="#C3D6C9"/>
<rect x="225" y="40" width="60" height="60" rx="10" fill="#C3D6C9"/>
<path d="M241.016 88L234.44 71.584L233.48 65.344H242.6L245.72 80.32H246.68L250.328 65.344H259.88L263.48 80.32H264.44L267.608 65.344H276.68L275.72 71.584L269.096 88H259.016L255.56 72.544H254.6L251.096 88H241.016Z" fill="#2A302C"/>
<rect x="225" y="115" width="60" height="60" rx="10" fill="#C3D6C9"/>
<rect x="300" y="115" width="60" height="60" rx="10" fill="#C3D6C9"/>
<rect x="300" y="40" width="60" height="60" rx="10" fill="#C3D6C9"/>
<path d="M330.2 63.952L324.104 57.808L330.2 51.712L336.296 57.808L330.2 63.952ZM325.88 88V72.112L324.872 68.272L325.832 65.344H334.52V88H325.88Z" fill="#2A302C"/>
<rect x="75" y="115" width="60" height="60" rx="10" fill="#C3D6C9"/>
<path d="M105.2 138.952L99.104 132.808L105.2 126.712L111.296 132.808L105.2 138.952ZM100.88 163V147.112L99.872 143.272L100.832 140.344H109.52V163H100.88Z" fill="#2A302C"/>
<rect x="375" y="40" width="60" height="60" rx="10" fill="#C3D6C9"/>
<path d="M393.88 88V73.552L392.92 68.272L394.408 65.344H401.56V67.408L401.992 67.696C402.344 67.376 402.824 67.008 403.432 66.592C404.072 66.144 404.84 65.744 405.736 65.392C406.632 65.04 407.64 64.864 408.76 64.864C411.64 64.864 413.8 65.68 415.24 67.312C416.68 68.944 417.4 71.232 417.4 74.176V80.272L418.408 85.072L417.4 88H408.76V75.424C408.76 74.208 408.488 73.28 407.944 72.64C407.432 71.968 406.616 71.632 405.496 71.632L402.52 72.544V88H393.88Z" fill="#2A302C"/>
<rect x="375" y="115" width="60" height="60" rx="10" fill="#C3D6C9"/>
<path d="M393.88 163V148.552L392.92 143.272L394.408 140.344H401.56V142.408L401.992 142.696C402.344 142.376 402.824 142.008 403.432 141.592C404.072 141.144 404.84 140.744 405.736 140.392C406.632 140.04 407.64 139.864 408.76 139.864C411.64 139.864 413.8 140.68 415.24 142.312C416.68 143.944 417.4 146.232 417.4 149.176V155.272L418.408 160.072L417.4 163H408.76V150.424C408.76 149.208 408.488 148.28 407.944 147.64C407.432 146.968 406.616 146.632 405.496 146.632L402.52 147.544V163H393.88Z" fill="#2A302C"/>
<rect x="150" y="115" width="60" height="60" rx="10" fill="#C3D6C9"/>
<path d="M167.88 163V148.552L166.92 143.272L168.408 140.344H175.56V142.408L175.992 142.696C176.344 142.376 176.824 142.008 177.432 141.592C178.072 141.144 178.84 140.744 179.736 140.392C180.632 140.04 181.64 139.864 182.76 139.864C185.64 139.864 187.8 140.68 189.24 142.312C190.68 143.944 191.4 146.232 191.4 149.176V155.272L192.408 160.072L191.4 163H182.76V150.424C182.76 149.208 182.488 148.28 181.944 147.64C181.432 146.968 180.616 146.632 179.496 146.632L176.52 147.544V163H167.88Z" fill="#2A302C"/>
<path d="M104.92 252.48C102.456 252.48 100.264 252.112 98.344 251.376C96.424 250.64 94.92 249.408 93.832 247.68C92.744 245.952 92.2 243.616 92.2 240.672C92.2 238.56 92.552 236.752 93.256 235.248C93.992 233.744 94.968 232.528 96.184 231.6C97.4 230.64 98.76 229.952 100.264 229.536C101.768 229.088 103.32 228.864 104.92 228.864C107.672 228.864 109.784 229.136 111.256 229.68C112.76 230.224 113.752 230.656 114.232 230.976L116.632 238.608L115.672 241.584H100.792C101.016 242.768 101.608 243.76 102.568 244.56C103.528 245.36 105.112 245.76 107.32 245.76C109.048 245.76 110.536 245.568 111.784 245.184C113.032 244.8 114.008 244.464 114.712 244.176V250.608C113.752 251.12 112.36 251.568 110.536 251.952C108.744 252.304 106.872 252.48 104.92 252.48ZM100.84 238.512L107.464 237.552L107.032 235.488C106.808 235.36 106.472 235.264 106.024 235.2C105.608 235.136 105.24 235.104 104.92 235.104C104.024 235.104 103.272 235.296 102.664 235.68C102.088 236.064 101.64 236.528 101.32 237.072C101.032 237.584 100.872 238.064 100.84 238.512ZM131.254 252.48C127.35 252.48 124.326 251.552 122.182 249.696C120.038 247.84 118.966 244.832 118.966 240.672C118.966 236.48 120.038 233.472 122.182 231.648C124.326 229.792 127.35 228.864 131.254 228.864C135.254 228.864 138.278 229.792 140.326 231.648C142.406 233.472 143.446 236.48 143.446 240.672C143.446 244.832 142.406 247.84 140.326 249.696C138.278 251.552 135.254 252.48 131.254 252.48ZM131.254 246.24C132.566 246.24 133.478 245.76 133.99 244.8C134.502 243.808 134.758 242.432 134.758 240.672C134.758 238.88 134.502 237.504 133.99 236.544C133.478 235.584 132.566 235.104 131.254 235.104C129.91 235.104 128.966 235.584 128.422 236.544C127.91 237.504 127.654 238.88 127.654 240.672C127.654 242.432 127.91 243.808 128.422 244.8C128.966 245.76 129.91 246.24 131.254 246.24ZM156.865 252.48C154.529 252.48 152.465 252.24 150.673 251.76C148.881 251.28 147.489 250.784 146.497 250.272V243.6C147.809 244.176 149.153 244.624 150.529 244.944C151.937 245.264 153.201 245.488 154.321 245.616C155.441 245.712 156.241 245.76 156.721 245.76C157.265 245.76 157.649 245.68 157.873 245.52C158.097 245.328 158.209 245.104 158.209 244.848C158.209 244.496 157.921 244.208 157.345 243.984C156.769 243.728 155.681 243.408 154.081 243.024C152.769 242.704 151.489 242.304 150.241 241.824C149.025 241.312 148.017 240.608 147.217 239.712C146.449 238.816 146.065 237.616 146.065 236.112C146.065 234.256 146.497 232.8 147.361 231.744C148.225 230.688 149.457 229.952 151.057 229.536C152.657 229.088 154.529 228.864 156.673 228.864C157.889 228.864 159.025 228.928 160.081 229.056C161.137 229.184 161.889 229.28 162.337 229.344L166.801 232.224L164.641 237.36L156.241 235.536C155.217 235.536 154.705 235.872 154.705 236.544C154.705 237.248 155.441 237.776 156.913 238.128C158.065 238.384 159.249 238.672 160.465 238.992C161.681 239.28 162.785 239.664 163.777 240.144C164.801 240.624 165.617 241.264 166.225 242.064C166.865 242.864 167.185 243.92 167.185 245.232C167.185 247.664 166.305 249.488 164.545 250.704C162.817 251.888 160.257 252.48 156.865 252.48ZM171.505 252V225.696L170.545 220.896L171.505 218.016H180.145V225.792L179.665 231.12L180.145 231.36C180.529 230.784 181.233 230.224 182.257 229.68C183.313 229.104 184.689 228.816 186.385 228.816C189.265 228.816 191.425 229.632 192.865 231.264C194.305 232.896 195.025 235.184 195.025 238.128V244.368L196.033 249.072L195.025 252H186.385V239.376C186.385 238.16 186.113 237.232 185.569 236.592C185.057 235.92 184.241 235.584 183.121 235.584L180.145 236.976V252H171.505ZM215.637 252.48C214.101 252.48 212.869 252.336 211.941 252.048C211.045 251.792 210.389 251.536 209.973 251.28C209.557 250.992 209.349 250.848 209.349 250.848V252.048H200.709V225.744L199.701 220.944L200.709 218.064H209.349V225.792L208.869 231.216L209.349 231.456C209.989 230.848 210.773 230.272 211.701 229.728C212.661 229.152 213.973 228.864 215.637 228.864C218.485 228.864 220.709 229.776 222.309 231.6C223.941 233.424 224.757 236.304 224.757 240.24C224.757 243.184 224.341 245.568 223.509 247.392C222.709 249.184 221.621 250.48 220.245 251.28C218.869 252.08 217.333 252.48 215.637 252.48ZM211.557 245.904C212.805 245.904 213.797 245.472 214.533 244.608C215.269 243.712 215.637 242.384 215.637 240.624C215.637 238.896 215.333 237.648 214.725 236.88C214.117 236.08 213.221 235.68 212.037 235.68L209.349 236.688V245.28C209.349 245.28 209.509 245.392 209.829 245.616C210.181 245.808 210.757 245.904 211.557 245.904ZM238.241 263.664C237.441 263.664 236.529 263.632 235.505 263.568C234.481 263.536 233.649 263.488 233.009 263.424L227.153 260.592L229.553 254.352L237.089 256.8C241.345 256.8 243.473 255.024 243.473 251.472V250.56L242.993 250.32C242.545 250.768 241.825 251.232 240.833 251.712C239.873 252.16 238.353 252.384 236.273 252.384C234.769 252.384 233.313 252.016 231.905 251.28C230.497 250.512 229.345 249.296 228.449 247.632C227.585 245.968 227.153 243.808 227.153 241.152C227.153 238.176 227.601 235.792 228.497 234C229.393 232.176 230.529 230.848 231.905 230.016C233.313 229.184 234.769 228.768 236.273 228.768C237.937 228.768 239.297 229.008 240.353 229.488C241.441 229.968 242.161 230.432 242.513 230.88V229.296H251.201L251.681 232.176L251.153 235.056L251.201 251.952C251.201 254.704 250.657 256.944 249.569 258.672C248.513 260.4 247.009 261.664 245.057 262.464C243.137 263.264 240.865 263.664 238.241 263.664ZM239.873 245.616C240.449 245.616 240.977 245.536 241.457 245.376C241.937 245.216 242.289 245.072 242.513 244.944V235.968C242.385 235.872 242.145 235.776 241.793 235.68C241.441 235.584 240.961 235.536 240.353 235.536C239.105 235.536 238.113 235.936 237.377 236.736C236.641 237.536 236.273 238.832 236.273 240.624C236.273 242.384 236.625 243.664 237.329 244.464C238.033 245.232 238.881 245.616 239.873 245.616ZM256.537 252V236.976L255.529 232.176L256.537 229.296H263.065L264.025 230.4C264.025 230.4 264.249 230.272 264.697 230.016C265.145 229.728 265.769 229.456 266.569 229.2C267.401 228.944 268.361 228.816 269.449 228.816C270.089 228.816 270.729 228.864 271.369 228.96C272.009 229.056 272.505 229.184 272.857 229.344L275.977 231.984L272.857 238.128L266.521 235.488L265.081 235.968V252H256.537ZM284.836 252.48C283.332 252.48 281.876 252.096 280.468 251.328C279.092 250.56 277.956 249.344 277.06 247.68C276.164 246.016 275.716 243.84 275.716 241.152C275.716 238.176 276.148 235.792 277.012 234C277.908 232.208 279.06 230.912 280.468 230.112C281.876 229.28 283.332 228.864 284.836 228.864C287.108 228.864 288.708 229.056 289.636 229.44C290.596 229.824 291.076 230.016 291.076 230.016L290.596 220.944L291.076 218.064H299.764V244.32L300.724 249.12L299.764 252.048H291.556V249.696L291.076 249.456C291.076 249.456 290.836 249.712 290.356 250.224C289.876 250.704 289.172 251.2 288.244 251.712C287.316 252.224 286.18 252.48 284.836 252.48ZM288.436 245.712L291.076 245.04V238.032C291.076 237.296 290.836 236.72 290.356 236.304C289.876 235.856 289.236 235.632 288.436 235.632C287.252 235.632 286.356 236.032 285.748 236.832C285.14 237.6 284.836 238.88 284.836 240.672C284.836 242.432 285.188 243.712 285.892 244.512C286.596 245.312 287.444 245.712 288.436 245.712ZM305.569 252L305.521 225.696L304.561 220.896L305.569 218.016H314.209V252H305.569ZM330.038 252.48C327.83 252.48 325.83 252.112 324.038 251.376C322.278 250.64 320.87 249.408 319.814 247.68C318.79 245.952 318.278 243.616 318.278 240.672C318.278 237.696 318.838 235.36 319.958 233.664C321.078 231.936 322.534 230.704 324.326 229.968C326.118 229.232 328.022 228.864 330.038 228.864C331.798 228.864 333.302 228.928 334.55 229.056C335.83 229.184 336.678 229.296 337.094 229.392L340.838 233.616L336.998 238.848L331.478 235.584C328.726 235.584 327.35 237.28 327.35 240.672C327.35 242.432 327.766 243.728 328.598 244.56C329.43 245.36 330.71 245.76 332.438 245.76C334.166 245.76 335.718 245.52 337.094 245.04C338.47 244.56 339.542 244.112 340.31 243.696V250.608C339.318 251.12 338.006 251.568 336.374 251.952C334.774 252.304 332.662 252.48 330.038 252.48ZM344.686 232.272L346.174 229.344H353.326V231.408L353.758 231.696C354.11 231.376 354.59 231.008 355.198 230.592C355.838 230.144 356.606 229.744 357.502 229.392C358.398 229.04 359.406 228.864 360.526 228.864C363.854 228.864 366.238 229.968 367.678 232.176C368.254 231.376 369.118 230.624 370.27 229.92C371.454 229.184 373.086 228.816 375.166 228.816C378.046 228.816 380.206 229.632 381.646 231.264C383.086 232.896 383.806 235.184 383.806 238.128V244.272L384.814 249.072L383.806 252H375.166V239.376C375.166 238.16 374.894 237.232 374.35 236.592C373.838 235.92 373.022 235.584 371.902 235.584C371.166 235.584 370.526 235.856 369.982 236.4C369.438 236.944 369.166 237.632 369.166 238.464V252H360.526V239.424C360.526 238.208 360.254 237.28 359.71 236.64C359.198 235.968 358.382 235.632 357.262 235.632L354.286 236.544V252H345.646V237.552L344.686 232.272ZM390.238 252V236.448L387.694 231.648L390.238 229.344C390.078 228.8 389.95 228.08 389.854 227.184C389.79 226.256 389.758 225.504 389.758 224.928C389.758 223.104 390.174 221.504 391.006 220.128C391.87 218.752 393.054 217.68 394.558 216.912C396.062 216.112 397.758 215.712 399.646 215.712C400.542 215.712 401.486 215.76 402.478 215.856C403.502 215.92 404.382 216.048 405.118 216.24L410.254 219.168L406.558 225.84L401.038 222.48C399.95 222.48 399.15 222.88 398.638 223.68C398.126 224.448 397.87 225.312 397.87 226.272C397.87 226.976 397.982 227.6 398.206 228.144C398.43 228.688 398.654 229.088 398.878 229.344H406.558V235.104H398.878V244.224L399.358 249.072L398.878 252H390.238Z" fill="#C3D6C9"/>
<path d="M91 238.368H408.334V240.768H91V238.368Z" fill="#C3D6C9"/>
</g>
<defs>
<clipPath id="clip0_247_37">
<rect width="499" height="264" fill="white"/>
</clipPath>
</defs>
</svg>
