<svg width="499" height="264" viewBox="0 0 499 264" fill="none" xmlns="http://www.w3.org/2000/svg">
<g clip-path="url(#clip0_247_37)">
<path d="M463.488 88.48C459.584 88.48 456.56 87.552 454.416 85.696C452.272 83.84 451.2 80.832 451.2 76.672C451.2 72.48 452.272 69.472 454.416 67.648C456.56 65.792 459.584 64.864 463.488 64.864C467.488 64.864 470.512 65.792 472.56 67.648C474.64 69.472 475.68 72.48 475.68 76.672C475.68 80.832 474.64 83.84 472.56 85.696C470.512 87.552 467.488 88.48 463.488 88.48ZM463.488 82.24C464.8 82.24 465.712 81.76 466.224 80.8C466.736 79.808 466.992 78.432 466.992 76.672C466.992 74.88 466.736 73.504 466.224 72.544C465.712 71.584 464.8 71.104 463.488 71.104C462.144 71.104 461.2 71.584 460.656 72.544C460.144 73.504 459.888 74.88 459.888 76.672C459.888 78.432 460.144 79.808 460.656 80.8C461.2 81.76 462.144 82.24 463.488 82.24ZM480.363 88V72.448L477.819 67.648L480.363 65.344C480.203 64.8 480.075 64.08 479.979 63.184C479.915 62.256 479.883 61.504 479.883 60.928C479.883 59.104 480.299 57.504 481.131 56.128C481.995 54.752 483.179 53.68 484.683 52.912C486.187 52.112 487.883 51.712 489.771 51.712C490.667 51.712 491.611 51.76 492.603 51.856C493.627 51.92 494.507 52.048 495.243 52.24L500.379 55.168L496.683 61.84L491.163 58.48C490.075 58.48 489.275 58.88 488.763 59.68C488.251 60.448 487.995 61.312 487.995 62.272C487.995 62.976 488.107 63.6 488.331 64.144C488.555 64.688 488.779 65.088 489.003 65.344H496.683V71.104H489.003V80.224L489.483 85.072L489.003 88H480.363Z" fill="#C3D6C9"/>
<rect y="40" width="60" height="60" rx="10" fill="#C3D6C9"/>
<rect y="115" width="60" height="60" rx="10" fill="#C3D6C9"/>
<rect x="75" y="40" width="60" height="60" rx="10" fill="#C3D6C9"/>
<rect x="150" y="40" width="60" height="60" rx="10" fill="#C3D6C9"/>
<rect x="150" y="115" width="60" height="60" rx="10" fill="#C3D6C9"/>
<rect x="225" y="40" width="60" height="60" rx="10" fill="#C3D6C9"/>
<rect x="225" y="115" width="60" height="60" rx="10" fill="#C3D6C9"/>
<rect x="375" y="40" width="60" height="60" rx="10" fill="#C3D6C9"/>
<rect x="300" y="115" width="60" height="60" rx="10" fill="#C3D6C9"/>
<rect x="375" y="115" width="60" height="60" rx="10" fill="#C3D6C9"/>
<rect x="300" y="40" width="60" height="60" rx="10" fill="#C3D6C9"/>
<path d="M330.2 63.952L324.104 57.808L330.2 51.712L336.296 57.808L330.2 63.952ZM325.88 88V72.112L324.872 68.272L325.832 65.344H334.52V88H325.88Z" fill="#2A302C"/>
<rect x="75" y="115" width="60" height="60" rx="10" fill="#C3D6C9"/>
<path d="M105.2 138.952L99.104 132.808L105.2 126.712L111.296 132.808L105.2 138.952ZM100.88 163V147.112L99.872 143.272L100.832 140.344H109.52V163H100.88Z" fill="#2A302C"/>
<path d="M132.92 252.48C130.456 252.48 128.264 252.112 126.344 251.376C124.424 250.64 122.92 249.408 121.832 247.68C120.744 245.952 120.2 243.616 120.2 240.672C120.2 238.56 120.552 236.752 121.256 235.248C121.992 233.744 122.968 232.528 124.184 231.6C125.4 230.64 126.76 229.952 128.264 229.536C129.768 229.088 131.32 228.864 132.92 228.864C135.672 228.864 137.784 229.136 139.256 229.68C140.76 230.224 141.752 230.656 142.232 230.976L144.632 238.608L143.672 241.584H128.792C129.016 242.768 129.608 243.76 130.568 244.56C131.528 245.36 133.112 245.76 135.32 245.76C137.048 245.76 138.536 245.568 139.784 245.184C141.032 244.8 142.008 244.464 142.712 244.176V250.608C141.752 251.12 140.36 251.568 138.536 251.952C136.744 252.304 134.872 252.48 132.92 252.48ZM128.84 238.512L135.464 237.552L135.032 235.488C134.808 235.36 134.472 235.264 134.024 235.2C133.608 235.136 133.24 235.104 132.92 235.104C132.024 235.104 131.272 235.296 130.664 235.68C130.088 236.064 129.64 236.528 129.32 237.072C129.032 237.584 128.872 238.064 128.84 238.512ZM159.254 252.48C155.35 252.48 152.326 251.552 150.182 249.696C148.038 247.84 146.966 244.832 146.966 240.672C146.966 236.48 148.038 233.472 150.182 231.648C152.326 229.792 155.35 228.864 159.254 228.864C163.254 228.864 166.278 229.792 168.326 231.648C170.406 233.472 171.446 236.48 171.446 240.672C171.446 244.832 170.406 247.84 168.326 249.696C166.278 251.552 163.254 252.48 159.254 252.48ZM159.254 246.24C160.566 246.24 161.478 245.76 161.99 244.8C162.502 243.808 162.758 242.432 162.758 240.672C162.758 238.88 162.502 237.504 161.99 236.544C161.478 235.584 160.566 235.104 159.254 235.104C157.91 235.104 156.966 235.584 156.422 236.544C155.91 237.504 155.654 238.88 155.654 240.672C155.654 242.432 155.91 243.808 156.422 244.8C156.966 245.76 157.91 246.24 159.254 246.24ZM184.865 252.48C182.529 252.48 180.465 252.24 178.673 251.76C176.881 251.28 175.489 250.784 174.497 250.272V243.6C175.809 244.176 177.153 244.624 178.529 244.944C179.937 245.264 181.201 245.488 182.321 245.616C183.441 245.712 184.241 245.76 184.721 245.76C185.265 245.76 185.649 245.68 185.873 245.52C186.097 245.328 186.209 245.104 186.209 244.848C186.209 244.496 185.921 244.208 185.345 243.984C184.769 243.728 183.681 243.408 182.081 243.024C180.769 242.704 179.489 242.304 178.241 241.824C177.025 241.312 176.017 240.608 175.217 239.712C174.449 238.816 174.065 237.616 174.065 236.112C174.065 234.256 174.497 232.8 175.361 231.744C176.225 230.688 177.457 229.952 179.057 229.536C180.657 229.088 182.529 228.864 184.673 228.864C185.889 228.864 187.025 228.928 188.081 229.056C189.137 229.184 189.889 229.28 190.337 229.344L194.801 232.224L192.641 237.36L184.241 235.536C183.217 235.536 182.705 235.872 182.705 236.544C182.705 237.248 183.441 237.776 184.913 238.128C186.065 238.384 187.249 238.672 188.465 238.992C189.681 239.28 190.785 239.664 191.777 240.144C192.801 240.624 193.617 241.264 194.225 242.064C194.865 242.864 195.185 243.92 195.185 245.232C195.185 247.664 194.305 249.488 192.545 250.704C190.817 251.888 188.257 252.48 184.865 252.48ZM199.505 252V225.696L198.545 220.896L199.505 218.016H208.145V225.792L207.665 231.12L208.145 231.36C208.529 230.784 209.233 230.224 210.257 229.68C211.313 229.104 212.689 228.816 214.385 228.816C217.265 228.816 219.425 229.632 220.865 231.264C222.305 232.896 223.025 235.184 223.025 238.128V244.368L224.033 249.072L223.025 252H214.385V239.376C214.385 238.16 214.113 237.232 213.569 236.592C213.057 235.92 212.241 235.584 211.121 235.584L208.145 236.976V252H199.505ZM228.709 252V236.976L227.701 232.176L228.709 229.296H235.237L236.197 230.4C236.197 230.4 236.421 230.272 236.869 230.016C237.317 229.728 237.941 229.456 238.741 229.2C239.573 228.944 240.533 228.816 241.621 228.816C242.261 228.816 242.901 228.864 243.541 228.96C244.181 229.056 244.677 229.184 245.029 229.344L248.149 231.984L245.029 238.128L238.693 235.488L237.253 235.968V252H228.709ZM257.008 252.48C255.504 252.48 254.048 252.096 252.64 251.328C251.264 250.56 250.128 249.344 249.232 247.68C248.336 246.016 247.888 243.84 247.888 241.152C247.888 238.176 248.32 235.792 249.184 234C250.08 232.208 251.232 230.912 252.64 230.112C254.048 229.28 255.504 228.864 257.008 228.864C259.28 228.864 260.88 229.056 261.808 229.44C262.768 229.824 263.248 230.016 263.248 230.016L262.768 220.944L263.248 218.064H271.936V244.32L272.896 249.12L271.936 252.048H263.728V249.696L263.248 249.456C263.248 249.456 263.008 249.712 262.528 250.224C262.048 250.704 261.344 251.2 260.416 251.712C259.488 252.224 258.352 252.48 257.008 252.48ZM260.608 245.712L263.248 245.04V238.032C263.248 237.296 263.008 236.72 262.528 236.304C262.048 235.856 261.408 235.632 260.608 235.632C259.424 235.632 258.528 236.032 257.92 236.832C257.312 237.6 257.008 238.88 257.008 240.672C257.008 242.432 257.36 243.712 258.064 244.512C258.768 245.312 259.616 245.712 260.608 245.712ZM277.741 252L277.693 225.696L276.733 220.896L277.741 218.016H286.381V252H277.741ZM302.21 252.48C300.002 252.48 298.002 252.112 296.21 251.376C294.45 250.64 293.042 249.408 291.986 247.68C290.962 245.952 290.45 243.616 290.45 240.672C290.45 237.696 291.01 235.36 292.13 233.664C293.25 231.936 294.706 230.704 296.498 229.968C298.29 229.232 300.194 228.864 302.21 228.864C303.97 228.864 305.474 228.928 306.722 229.056C308.002 229.184 308.85 229.296 309.266 229.392L313.01 233.616L309.17 238.848L303.65 235.584C300.898 235.584 299.522 237.28 299.522 240.672C299.522 242.432 299.938 243.728 300.77 244.56C301.602 245.36 302.882 245.76 304.61 245.76C306.338 245.76 307.89 245.52 309.266 245.04C310.642 244.56 311.714 244.112 312.482 243.696V250.608C311.49 251.12 310.178 251.568 308.546 251.952C306.946 252.304 304.834 252.48 302.21 252.48ZM316.858 232.272L318.346 229.344H325.498V231.408L325.93 231.696C326.282 231.376 326.762 231.008 327.37 230.592C328.01 230.144 328.778 229.744 329.674 229.392C330.57 229.04 331.578 228.864 332.698 228.864C336.026 228.864 338.41 229.968 339.85 232.176C340.426 231.376 341.29 230.624 342.442 229.92C343.626 229.184 345.258 228.816 347.338 228.816C350.218 228.816 352.378 229.632 353.818 231.264C355.258 232.896 355.978 235.184 355.978 238.128V244.272L356.986 249.072L355.978 252H347.338V239.376C347.338 238.16 347.066 237.232 346.522 236.592C346.01 235.92 345.194 235.584 344.074 235.584C343.338 235.584 342.698 235.856 342.154 236.4C341.61 236.944 341.338 237.632 341.338 238.464V252H332.698V239.424C332.698 238.208 332.426 237.28 331.882 236.64C331.37 235.968 330.554 235.632 329.434 235.632L326.458 236.544V252H317.818V237.552L316.858 232.272ZM362.41 252V236.448L359.866 231.648L362.41 229.344C362.25 228.8 362.122 228.08 362.026 227.184C361.962 226.256 361.93 225.504 361.93 224.928C361.93 223.104 362.346 221.504 363.178 220.128C364.042 218.752 365.226 217.68 366.73 216.912C368.234 216.112 369.93 215.712 371.818 215.712C372.714 215.712 373.658 215.76 374.65 215.856C375.674 215.92 376.554 216.048 377.29 216.24L382.426 219.168L378.73 225.84L373.21 222.48C372.122 222.48 371.322 222.88 370.81 223.68C370.298 224.448 370.042 225.312 370.042 226.272C370.042 226.976 370.154 227.6 370.378 228.144C370.602 228.688 370.826 229.088 371.05 229.344H378.73V235.104H371.05V244.224L371.53 249.072L371.05 252H362.41Z" fill="#C3D6C9"/>
<path d="M119 238.368H380.506V240.768H119V238.368Z" fill="#C3D6C9"/>
</g>
<defs>
<clipPath id="clip0_247_37">
<rect width="499" height="264" fill="white"/>
</clipPath>
</defs>
</svg>
