<?xml version="1.0" encoding="utf-8"?>
<!-- Generator: Adobe Illustrator 27.5.0, SVG Export Plug-In . SVG Version: 6.00 Build 0)  -->
<svg version="1.1" id="Layer_1" xmlns="http://www.w3.org/2000/svg" xmlns:xlink="http://www.w3.org/1999/xlink" x="0px" y="0px"
	 viewBox="0 0 151 361" style="enable-background:new 0 0 151 361;" xml:space="preserve">
<style type="text/css">
	.st0{fill:#FFFFFF;fill-opacity:0;stroke:#CADBCF;}
	.st1{fill:#CADBCF;}
	.st2{font-family:'CourierNewPS-BoldMT';}
	.st3{font-size:11px;}
</style>
<g id="cx-0-3">
	<rect x="90.5" y="0.5" shape-rendering="crispEdge" class="st0" width="30" height="30"/>
	<text transform="matrix(1 0 0 1 92.5 13.5)" class="st1 st2 st3">1</text>
</g>
<g id="cx-1-3">
	<rect x="90.5" y="30.5" shape-rendering="crispEdge" class="st0" width="30" height="30"/>
</g>
<g id="cx-2-3">
	<rect x="90.5" y="60.5" shape-rendering="crispEdge" class="st0" width="30" height="30"/>
</g>
<g id="cx-3-3">
	<rect x="90.5" y="90.5" shape-rendering="crispEdge" class="st0" width="30" height="30"/>
</g>
<g id="cx-4-3">
	<rect x="90.5" y="120.5" shape-rendering="crispEdge" class="st0" width="30" height="30"/>
</g>
<g id="cx-5-3">
	<rect x="90.5" y="150.5" shape-rendering="crispEdge" class="st0" width="30" height="30"/>
</g>
<g id="cx-6-0">
	<rect x="0.5" y="180.5" shape-rendering="crispEdge" class="st0" width="30" height="30"/>
	<text transform="matrix(1 0 0 1 2.5 193.5)" class="st1 st2 st3">2</text>
</g>
<g id="cx-6-1">
	<rect x="30.5" y="180.5" shape-rendering="crispEdge" class="st0" width="30" height="30"/>
</g>
<g id="cx-6-2">
	<rect x="60.5" y="180.5" shape-rendering="crispEdge" class="st0" width="30" height="30"/>
</g>
<g id="cx-6-3">
	<rect x="90.5" y="180.5" shape-rendering="crispEdge" class="st0" width="30" height="30"/>
</g>
<g id="cx-6-4">
	<rect x="120.5" y="180.5" shape-rendering="crispEdge" class="st0" width="30" height="30"/>
</g>
<g id="cx-7-0">
	<rect x="0.5" y="210.5" shape-rendering="crispEdge" class="st0" width="30" height="30"/>
</g>
<g id="cx-7-3">
	<rect x="90.5" y="210.5" shape-rendering="crispEdge" class="st0" width="30" height="30"/>
</g>
<g id="cx-8-0">
	<rect x="0.5" y="240.5" shape-rendering="crispEdge" class="st0" width="30" height="30"/>
</g>
<g id="cx-9-0">
	<rect x="0.5" y="270.5" shape-rendering="crispEdge" class="st0" width="30" height="30"/>
</g>
<g id="cx-10-0">
	<rect x="0.5" y="300.5" shape-rendering="crispEdge" class="st0" width="30" height="30"/>
</g>
<g id="cx-11-0">
	<rect x="0.5" y="330.5" shape-rendering="crispEdge" class="st0" width="30" height="30"/>
</g>
</svg>
