<?xml version="1.0" encoding="utf-8"?>
<!-- Generator: Adobe Illustrator 27.4.1, SVG Export Plug-In . SVG Version: 6.00 Build 0)  -->
<svg version="1.1" id="Layer_1" xmlns="http://www.w3.org/2000/svg" xmlns:xlink="http://www.w3.org/1999/xlink" x="0px" y="0px"
	 viewBox="0 0 386.1 418" style="enable-background:new 0 0 386.1 418;" xml:space="preserve">
<style type="text/css">
	.st0{fill:#FFFFFF;}
</style>
<path class="st0" d="M216.6,408.6c-12.5,12.5-32.8,12.5-45.3,0l-160-160c-12.5-12.5-12.5-32.8,0-45.3s32.8-12.5,45.3,0L194,340.7
	l137.4-137.3c12.5-12.5,32.8-12.5,45.3,0s12.5,32.8,0,45.3L216.6,408.6L216.6,408.6z M376.6,56.6l-160,160
	c-12.5,12.5-32.8,12.5-45.3,0l-160-160c-12.5-12.5-12.5-32.8,0-45.3s32.8-12.5,45.3,0L194,148.7L331.4,11.4
	c12.5-12.5,32.8-12.5,45.3,0S389.2,44.2,376.6,56.6L376.6,56.6z"/>
</svg>
